<svg xmlns="http://www.w3.org/2000/svg" width="59" height="60" viewBox="0 0 59 60"><g transform="translate(-0.08 -6.599)"><g transform="translate(0.08 6.599)" fill="none" stroke="#e52431" stroke-width="3"><ellipse cx="29.5" cy="30" rx="29.5" ry="30" stroke="none"/><ellipse cx="29.5" cy="30" rx="28" ry="28.5" fill="none"/></g><path d="M21.654-19.332a.625.625,0,0,1,.459.189.625.625,0,0,1,.189.459v3.456a.625.625,0,0,1-.189.459.625.625,0,0,1-.459.189H14.526a.239.239,0,0,0-.27.27v7.128a.625.625,0,0,1-.189.459.625.625,0,0,1-.459.189H10.152a.625.625,0,0,1-.459-.189A.625.625,0,0,1,9.5-7.182V-14.31a.239.239,0,0,0-.27-.27H2.106a.625.625,0,0,1-.459-.189.625.625,0,0,1-.189-.459v-3.456a.625.625,0,0,1,.189-.459.625.625,0,0,1,.459-.189H9.234a.239.239,0,0,0,.27-.27V-26.73a.625.625,0,0,1,.189-.459.625.625,0,0,1,.459-.189h3.456a.625.625,0,0,1,.459.189.625.625,0,0,1,.189.459V-19.6a.239.239,0,0,0,.27.27Z" transform="translate(17.08 53.599)" fill="#212121"/></g></svg>