<svg width="134" height="39" viewBox="0 0 134 39" fill="none" xmlns="http://www.w3.org/2000/svg">
<mask id="mask0_1370_20861" style="mask-type:alpha" maskUnits="userSpaceOnUse" x="0" y="0" width="134" height="39">
<rect x="0.998047" width="132.364" height="39" fill="#C4C4C4"/>
</mask>
<g mask="url(#mask0_1370_20861)">
<path d="M47.5029 26.5505C48.4219 26.5821 49.3361 26.4041 50.1762 26.0302C50.8724 25.6873 51.5341 25.2782 52.1519 24.8086C52.5182 24.5336 52.9609 24.3794 53.4188 24.3674C53.6571 24.3543 53.8953 24.3941 54.1163 24.4841C54.3373 24.5741 54.5357 24.7119 54.697 24.8878C55.0167 25.2456 55.1815 25.7156 55.1553 26.1948C55.1292 26.6739 54.9142 27.1232 54.5575 27.4441C54.1106 27.9126 53.6034 28.3196 53.0493 28.6545C52.4888 28.9966 51.8951 29.2808 51.2772 29.5028C50.6649 29.724 50.0339 29.8893 49.3919 29.9968C47.3125 30.338 45.1799 30.126 43.2084 29.3822C41.9255 28.8891 40.7614 28.1303 39.7926 27.1556C38.8237 26.1808 38.0719 25.0122 37.5866 23.7265C36.5206 20.8276 36.5206 17.6441 37.5866 14.7452C38.0719 13.4594 38.8237 12.2908 39.7926 11.3161C40.7614 10.3414 41.9255 9.58255 43.2084 9.08947C45.1799 8.34564 47.3125 8.13368 49.3919 8.47488C50.0339 8.58237 50.6649 8.74769 51.2772 8.96881C51.8951 9.19083 52.4888 9.47508 53.0493 9.81717C53.6034 10.152 54.1106 10.559 54.5575 11.0275C54.9142 11.3485 55.1292 11.7977 55.1553 12.2769C55.1815 12.756 55.0167 13.226 54.697 13.5839C54.5357 13.7597 54.3373 13.8976 54.1163 13.9876C53.8953 14.0775 53.6571 14.1174 53.4188 14.1042C52.9609 14.0922 52.5182 13.9381 52.1519 13.6631C51.534 13.1946 50.8724 12.7867 50.1762 12.4452C49.337 12.0682 48.4224 11.8889 47.5029 11.9211C46.5362 11.9086 45.5773 12.096 44.6864 12.4716C43.8665 12.8244 43.1294 13.3445 42.5221 13.9986C41.9082 14.6702 41.434 15.4572 41.127 16.3137C40.4734 18.2018 40.4734 20.2548 41.127 22.1429C41.434 22.9994 41.9082 23.7864 42.5221 24.4579C43.1294 25.1121 43.8665 25.6322 44.6864 25.985C45.5773 26.3606 46.5362 26.548 47.5029 26.5355" fill="#27224F"/>
<path d="M81.505 29.4913C81.3348 29.6703 81.1284 29.811 80.8995 29.9039C80.6707 29.9969 80.4246 30.04 80.1778 30.0304C79.9383 30.0348 79.7006 29.9891 79.4799 29.8962C79.2591 29.8034 79.0602 29.6655 78.8958 29.4913C78.7292 29.3261 78.5972 29.1293 78.5079 28.9123C78.4185 28.6954 78.3735 28.4628 78.3755 28.2281V17.6934L72.9988 29.0049C72.8721 29.3169 72.6518 29.582 72.3682 29.7636C72.0846 29.9452 71.7516 30.0345 71.4152 30.0191C71.0803 30.0289 70.7504 29.9373 70.4684 29.7563C70.1865 29.5753 69.9659 29.3134 69.8354 29.0049L64.3946 17.6934V28.1942C64.3949 28.4331 64.3474 28.6696 64.2548 28.8898C64.1622 29.11 64.0264 29.3094 63.8554 29.4762C63.6898 29.6539 63.4888 29.795 63.2655 29.8905C63.0421 29.9859 62.8012 30.0336 62.5583 30.0304C62.3208 30.0314 62.0856 29.9826 61.8681 29.8871C61.6505 29.7917 61.4554 29.6517 61.2952 29.4762C61.1236 29.3099 60.9873 29.1106 60.8946 28.8903C60.802 28.67 60.7548 28.4332 60.756 28.1942V10.2618C60.7526 10.0278 60.7955 9.79536 60.8822 9.57794C60.9689 9.36052 61.0977 9.1624 61.2613 8.99494C61.4266 8.81787 61.6279 8.67816 61.8515 8.58517C62.0752 8.49218 62.3162 8.44806 62.5583 8.45576C62.9344 8.4421 63.3035 8.55938 63.6028 8.78757C63.8755 9.00962 64.1011 9.28396 64.2664 9.59445L71.4303 24.4313L78.515 9.59445C78.674 9.27125 78.9064 8.98975 79.1937 8.77248C79.483 8.56021 79.8341 8.44893 80.1929 8.45576C80.4397 8.44228 80.6867 8.4806 80.9179 8.56827C81.149 8.65593 81.3593 8.79099 81.5352 8.96478C81.7013 9.14212 81.8302 9.3509 81.9144 9.57883C81.9986 9.80677 82.0363 10.0492 82.0253 10.292V28.2281C82.0296 28.6992 81.8481 29.1531 81.5201 29.4913" fill="#27224F"/>
<path d="M106.24 10.2594C106.233 10.5183 106.18 10.7738 106.082 11.0135L98.2692 28.9873C98.1229 29.2997 97.8905 29.5639 97.5993 29.7489C97.3081 29.9339 96.9702 30.032 96.6253 30.0318C96.2794 30.0354 95.9396 29.9413 95.6449 29.7603C95.3468 29.5802 95.1142 29.3093 94.9813 28.9873L87.135 11.021C87.0343 10.7914 86.9805 10.544 86.9766 10.2933C86.9751 10.0556 87.0206 9.81999 87.1106 9.59998C87.2005 9.37997 87.3331 9.17991 87.5007 9.01135C87.6572 8.83531 87.8495 8.69478 88.0647 8.59918C88.28 8.50359 88.5132 8.45514 88.7487 8.45709C89.0991 8.45502 89.4433 8.54891 89.7441 8.72856C90.0485 8.90656 90.2877 9.17749 90.4266 9.50151L96.5913 24.2064L102.824 9.50151C102.966 9.19462 103.19 8.93344 103.472 8.74742C103.758 8.556 104.094 8.45604 104.438 8.46086C104.677 8.45696 104.915 8.50287 105.135 8.59569C105.356 8.68851 105.555 8.82621 105.72 9.00004C105.886 9.16517 106.018 9.36201 106.108 9.57895C106.197 9.79589 106.242 10.0285 106.24 10.2631" fill="#27224F"/>
<path d="M131.958 29.4912C131.787 29.6703 131.58 29.811 131.35 29.904C131.121 29.9969 130.874 30.04 130.627 30.0304C130.388 30.0347 130.151 29.9889 129.931 29.8961C129.711 29.8032 129.512 29.6653 129.349 29.4912C129.181 29.3268 129.048 29.1301 128.958 28.9131C128.868 28.6961 128.822 28.4631 128.825 28.2281V17.6934L123.448 29.0048C123.321 29.3168 123.101 29.5819 122.817 29.7636C122.534 29.9452 122.201 30.0345 121.864 30.0191C121.529 30.0288 121.199 29.9372 120.918 29.7562C120.636 29.5752 120.415 29.3133 120.285 29.0048L114.844 17.6934V28.1942C114.845 28.4328 114.798 28.6692 114.706 28.8894C114.614 29.1096 114.479 29.3091 114.308 29.4761C114.142 29.6535 113.941 29.7943 113.718 29.8897C113.495 29.9852 113.254 30.0331 113.011 30.0304C112.773 30.0314 112.537 29.9826 112.319 29.8872C112.101 29.7917 111.905 29.6517 111.744 29.4761C111.573 29.3093 111.438 29.1099 111.345 28.8897C111.252 28.6695 111.205 28.433 111.205 28.1942V10.2618C111.202 10.0275 111.246 9.79497 111.333 9.57756C111.421 9.36016 111.55 9.16215 111.714 8.99488C111.88 8.81781 112.081 8.6781 112.304 8.58511C112.528 8.49212 112.769 8.448 113.011 8.4557C113.386 8.44198 113.754 8.55931 114.052 8.78751C114.327 9.00861 114.554 9.28309 114.719 9.59439L121.864 24.4312L128.953 9.59439C129.11 9.27025 129.343 8.98844 129.632 8.77242C129.92 8.56069 130.269 8.44942 130.627 8.4557C130.874 8.44239 131.122 8.48078 131.354 8.56841C131.585 8.65605 131.796 8.79102 131.973 8.96472C132.139 9.14206 132.268 9.35084 132.352 9.57877C132.436 9.80671 132.474 10.0492 132.463 10.2919V28.2281C132.467 28.6992 132.286 29.153 131.958 29.4912" fill="#27224F"/>
<path d="M23.3184 26.0039C23.341 26.0944 23.3636 26.1962 23.3862 26.3093C23.3561 26.1359 23.3334 26.0454 23.3334 26.0454C23.3344 26.0316 23.3344 26.0177 23.3334 26.0039" fill="#988440"/>
<path d="M30.8261 3.53125C30.841 7.85167 30.0163 12.1338 28.3979 16.1397C27.507 14.6699 26.4874 13.282 25.3514 11.9922C26.2238 9.25673 26.6664 6.40246 26.6635 3.53125H24.4314C24.434 5.77069 24.1412 8.00069 23.5604 10.1635C22.5552 9.22016 21.4759 8.35899 20.3329 7.58828C20.6137 6.2542 20.7552 4.89457 20.7552 3.53125H18.5231C18.5212 4.47596 18.4443 5.41904 18.2931 6.35156C14.9578 4.5153 11.215 3.54557 7.40769 3.53125H1.58984V5.76337H7.40769C11.0516 5.78048 14.6257 6.76411 17.7652 8.61385C18.4347 9.00167 19.084 9.42325 19.7108 9.87696C20.8088 10.6701 21.8391 11.5529 22.7912 12.5163C23.3694 13.1095 23.9236 13.7379 24.454 14.4015C25.5133 15.7215 26.4486 17.1364 27.2479 18.6282C27.3611 18.8394 27.4704 19.0468 27.5797 19.2617C27.879 19.914 28.1384 20.5838 28.3565 21.2676C28.8592 20.4205 29.3242 19.5407 29.7515 18.6282C31.9487 13.905 33.0778 8.75555 33.0582 3.54633L30.8261 3.53125Z" fill="#988440"/>
<path d="M2.31336 16.9902C4.78072 16.9912 7.2149 17.5588 9.42825 18.6492C7.22541 19.7746 4.78701 20.3612 2.31336 20.361H1.58944V22.6761H2.31336C5.62957 22.6768 8.88001 21.7509 11.6981 20.0028C12.8605 20.8293 13.9101 21.804 14.82 22.9023C11.8673 24.9585 8.35855 26.0672 4.76041 26.0808H1.58944V28.4185H4.76041C8.84096 28.405 12.8182 27.1345 16.151 24.78C16.9499 26.0812 17.557 27.4907 17.9533 28.9652C14.7888 30.95 11.1314 32.008 7.39597 32.0193H1.58944V34.3344H7.40728C11.2468 34.3213 15.0161 33.3049 18.3417 31.3859C19.0727 30.9725 19.7813 30.5207 20.4645 30.0323C20.4381 29.8588 20.4079 29.6816 20.3702 29.5044C20.2397 28.8675 20.0749 28.2382 19.8763 27.6192C19.1698 25.4055 18.0503 23.3457 16.5771 21.5487C15.1833 19.8546 13.5025 18.4188 11.6114 17.3069C8.79011 15.6455 5.57615 14.7682 2.30205 14.7656H1.57812V16.9978L2.31336 16.9902Z" fill="#988440"/>
<path d="M4.76068 11.4738C8.27315 11.4866 11.7073 12.513 14.6506 14.4298C15.2886 14.8393 15.9018 15.2863 16.4869 15.7683C17.535 16.6273 18.4949 17.5885 19.3524 18.6377C19.8472 19.2407 20.3092 19.8701 20.7362 20.5229C21.6169 21.8793 22.3489 23.3268 22.9193 24.8401C23.055 25.2172 23.1983 25.5942 23.319 25.9939C23.32 26.0077 23.32 26.0215 23.319 26.0353L23.3718 26.2993C23.4547 26.6763 23.549 27.1703 23.5867 27.3739C24.2352 26.7404 24.8561 26.0718 25.4493 25.368V25.3227C25.1877 24.5022 24.8844 23.6955 24.5406 22.9059C23.8894 21.402 23.0872 19.9681 22.1464 18.6264C21.6901 17.9732 21.2005 17.344 20.6796 16.7411C19.3037 15.1444 17.7109 13.7484 15.9477 12.5936C12.6244 10.4065 8.7353 9.23632 4.75691 9.22656H1.58594V11.4549L4.76068 11.4738Z" fill="#988440"/>
</g>
</svg>
