<svg xmlns="http://www.w3.org/2000/svg" width="60" height="59" viewBox="0 0 60 59"><g transform="translate(0.352 -0.492)"><g transform="translate(-0.352 0.492)" fill="#fff" stroke="#e52431" stroke-width="3"><ellipse cx="30" cy="29.5" rx="30" ry="29.5" stroke="none"/><ellipse cx="30" cy="29.5" rx="28.5" ry="28" fill="none"/></g><path d="M9.183,24.344.4,15.556a1.352,1.352,0,0,1,0-1.912l1.912-1.912a1.352,1.352,0,0,1,1.912,0l5.92,5.919L22.818,4.973a1.352,1.352,0,0,1,1.912,0l1.912,1.912a1.352,1.352,0,0,1,0,1.912L11.1,24.344A1.352,1.352,0,0,1,9.183,24.344Z" transform="translate(16.223 15.083)" fill="#212121"/></g></svg>