<svg xmlns="http://www.w3.org/2000/svg" width="59" height="60" viewBox="0 0 59 60"><g transform="translate(0 0.16)"><g transform="translate(0 -0.16)" fill="none" stroke="#e52431" stroke-width="3"><ellipse cx="29.5" cy="30" rx="29.5" ry="30" stroke="none"/><ellipse cx="29.5" cy="30" rx="28" ry="28.5" fill="none"/></g><path d="M23.64,17.2l-5.323-2.281a1.141,1.141,0,0,0-1.331.328l-2.357,2.88A17.617,17.617,0,0,1,6.207,9.7l2.88-2.357a1.138,1.138,0,0,0,.328-1.331L7.134.69A1.148,1.148,0,0,0,5.827.029L.884,1.17A1.141,1.141,0,0,0,0,2.281,22.051,22.051,0,0,0,22.053,24.335a1.141,1.141,0,0,0,1.112-.884l1.141-4.943A1.154,1.154,0,0,0,23.64,17.2Z" transform="translate(17.575 17.574)" fill="#212121"/></g></svg>