<svg xmlns="http://www.w3.org/2000/svg" width="281.296" height="31.816" viewBox="0 0 281.296 31.816"><g transform="translate(-14.173 -20.455)"><path d="M150.869,52.162h6.96V20.48h-6.96Zm-27.855,0h20.829V46.079h-13.87V20.48h-6.96Zm-28.12,0h20.045V46.079H101.853V38.551h10.853V32.775H101.853V26.56h12.6V20.48H94.894ZM65.772,46.079V26.56h1.882c3.543,0,6.563.351,8.8,1.925a9.215,9.215,0,0,1,3.675,7.793c0,6.258-3.675,9.8-12.427,9.8Zm-6.96,6.083h8.577c13.565,0,19.695-6.172,19.695-15.884,0-10.152-6.784-15.8-19.387-15.8H58.812Zm-16.3,0h6.96V20.48h-6.96Zm-28.338,0h6.96v-13H32.426V33.387H21.133V26.56H34.261V20.48H14.173Z" transform="translate(0 0.039)" fill="#fff"/><path d="M145.575,52.162H165.62V46.079H152.535V38.551h10.853V32.775H152.535V26.56h12.6V20.48h-19.56Zm-29.122-6.083V26.56h1.882c3.543,0,6.563.351,8.8,1.925a9.217,9.217,0,0,1,3.678,7.793c0,6.258-3.678,9.8-12.431,9.8Zm-6.96,6.083h8.577c13.569,0,19.695-6.172,19.695-15.884,0-10.152-6.784-15.8-19.387-15.8h-8.885Zm-25.93-15.49C84.572,34,85.71,30.85,86.54,28.445h.086C87.46,30.85,88.6,34,89.514,36.5l1.317,3.546H82.293ZM70.438,52.162H77.57l2.58-6.652H92.928l2.54,6.652h7.439L90.04,20.48H83.3Z" transform="translate(129.849 0.039)" fill="#fff"/><path d="M60.366,28.634V20.463h7.969l-7.969,8.171" transform="translate(106.605)" fill="#fff" fill-rule="evenodd"/><path d="M67.14,20.463H74.2s14.581.559,14.578,15.686S73.66,52.162,73.66,52.162l-13.294.109,7.1-9.371,12.163-.109,2.822-1.2,2.716-5.339-7.823-4.466-.976-2.941-5.65-2.4-3.582-5.99" transform="translate(106.605)" fill="#fff" fill-rule="evenodd"/></g></svg>