<svg xmlns="http://www.w3.org/2000/svg" width="210" height="38.933" viewBox="0 0 210 38.933"><g transform="translate(-14.173 -20.463)"><path d="M116.222,44.132h5.2V20.48h-5.2Zm-20.8,0h15.55V39.591H100.623V20.48h-5.2Zm-20.993,0H89.4V39.591H79.63V33.97h8.1V29.659h-8.1v-4.64h9.409V20.48h-14.6ZM52.694,39.591V25.019H54.1c2.645,0,4.9.262,6.566,1.437a6.879,6.879,0,0,1,2.744,5.818c0,4.672-2.744,7.317-9.278,7.317Zm-5.2,4.541h6.4c10.127,0,14.7-4.608,14.7-11.858,0-7.579-5.065-11.794-14.473-11.794H47.5Zm-12.169,0h5.2V20.48h-5.2Zm-21.156,0h5.2v-9.7H27.8V30.116H19.369v-5.1h9.8V20.48h-15Z" transform="translate(0 0.025)" fill="#e52431"/><path d="M146.544,39.6c1.2,0,2.074-.677,2.074-1.662a1.381,1.381,0,0,0-.926-1.331v-.015a1.162,1.162,0,0,0,.753-1.124,1.943,1.943,0,0,0-3.8,0,1.159,1.159,0,0,0,.753,1.124v.015a1.378,1.378,0,0,0-.926,1.331C144.474,38.923,145.353,39.6,146.544,39.6Zm0-1a.773.773,0,0,1-.832-.748.838.838,0,0,1,1.669,0A.774.774,0,0,1,146.544,38.6Zm0-2.368a.66.66,0,1,1,.728-.659A.687.687,0,0,1,146.544,36.234Zm-6.833,2.287a.685.685,0,0,1-.556-.3,2.625,2.625,0,0,1-.257-1.45,2.791,2.791,0,0,1,.257-1.467.666.666,0,0,1,.556-.3.66.66,0,0,1,.556.3,2.683,2.683,0,0,1,.257,1.452,2.641,2.641,0,0,1-.257,1.464A.678.678,0,0,1,139.711,38.521Zm0,1.079a1.835,1.835,0,0,0,1.519-.746,3.447,3.447,0,0,0,.5-2.089,3.457,3.457,0,0,0-.5-2.089,1.927,1.927,0,0,0-3.037,0,3.457,3.457,0,0,0-.5,2.089,3.447,3.447,0,0,0,.5,2.089A1.845,1.845,0,0,0,139.711,39.6Zm-6.835,0c1.193,0,2.072-.677,2.072-1.662a1.381,1.381,0,0,0-.926-1.331v-.015a1.162,1.162,0,0,0,.753-1.124,1.943,1.943,0,0,0-3.8,0,1.164,1.164,0,0,0,.751,1.124v.015a1.384,1.384,0,0,0-.926,1.331C130.8,38.923,131.683,39.6,132.875,39.6Zm0-1a.776.776,0,0,1-.837-.748.839.839,0,0,1,1.672,0A.774.774,0,0,1,132.875,38.6Zm0-2.368a.66.66,0,1,1,.729-.659A.686.686,0,0,1,132.875,36.234Zm-6.766,3.279h1.205V33.935l-2.321.842v1.094l1.116-.4Zm-11.359,0h3.482V38.461H115.96V37.153h1.882v-1H115.96V35.073h2.185V34.016h-3.4Zm-6.438-1.052V35.073h.326a2.63,2.63,0,0,1,1.526.333,1.6,1.6,0,0,1,.64,1.353c0,1.087-.64,1.7-2.158,1.7ZM107.1,39.513h1.487c2.353,0,3.418-1.069,3.418-2.753,0-1.763-1.175-2.744-3.363-2.744H107.1Zm-6.418-.3a4.057,4.057,0,0,0,1.709.39c1.185,0,2-.645,2-1.716,0-.973-.667-1.361-1.5-1.635-.662-.22-1.168-.257-1.168-.743,0-.363.294-.516.7-.516a3.519,3.519,0,0,1,1.689.531V34.33a3.787,3.787,0,0,0-1.679-.4c-1.156,0-1.929.635-1.929,1.662,0,.956.682,1.331,1.442,1.578.706.23,1.222.274,1.222.785,0,.407-.326.585-.768.585A3.526,3.526,0,0,1,100.686,38Zm-6.225.3h3.477V38.461H95.666V37.153h1.887v-1H95.666V35.073h2.188V34.016H94.461Zm-6.443-1.052V35.073h.328a2.622,2.622,0,0,1,1.524.333,1.6,1.6,0,0,1,.64,1.353c0,1.087-.64,1.7-2.156,1.7Zm-1.208,1.052H88.3c2.356,0,3.418-1.069,3.418-2.753,0-1.763-1.178-2.744-3.363-2.744H86.811Zm-10.4-.3a4.046,4.046,0,0,0,1.706.39c1.185,0,2-.645,2-1.716,0-.973-.672-1.361-1.5-1.635-.662-.22-1.171-.257-1.171-.743,0-.363.3-.516.706-.516a3.511,3.511,0,0,1,1.687.531V34.33a3.772,3.772,0,0,0-1.679-.4c-1.153,0-1.929.635-1.929,1.662,0,.956.684,1.331,1.442,1.578.706.23,1.222.274,1.222.785,0,.407-.326.585-.766.585A3.511,3.511,0,0,1,76.412,38Zm-5.6.39a2.833,2.833,0,1,0-2.872-2.835A2.8,2.8,0,0,0,70.814,39.6Zm0-1.094a1.74,1.74,0,1,1,1.662-1.741A1.675,1.675,0,0,1,70.814,38.506ZM62.43,36.439V35.073h.462c.9,0,1.215.2,1.215.684,0,.509-.388.682-1.069.682Zm-1.208,3.074H62.43V37.345h.538l1.39,2.168h1.39L64.2,37.192a1.531,1.531,0,0,0,1.116-1.519c0-1.316-1.116-1.657-2.368-1.657H61.223Zm-7.337-.81a2.642,2.642,0,0,0,3.954.015,3.179,3.179,0,0,0,.427-1.869V34.016H57.106v2.825c0,1.185-.328,1.672-1.21,1.672-.956,0-1.215-.524-1.215-1.679V34.016H53.473v2.865A3.228,3.228,0,0,0,53.886,38.7ZM45.7,36.79a2.806,2.806,0,0,0,3,2.81,4,4,0,0,0,1.867-.457V36.592H48.438v1H49.4v.827a1.858,1.858,0,0,1-.677.123,1.764,1.764,0,1,1,.007-3.526,3.031,3.031,0,0,1,1.664.548V34.352a3.531,3.531,0,0,0-1.687-.417A2.845,2.845,0,0,0,45.7,36.79Zm-6.033,2.724h3.479V38.461H40.874V37.153h1.884v-1H40.874V35.073h2.188V34.016h-3.4Zm-6.416-.3a4.048,4.048,0,0,0,1.709.39c1.183,0,2-.645,2-1.716,0-.973-.669-1.361-1.5-1.635-.662-.22-1.171-.257-1.171-.743,0-.363.3-.516.706-.516a3.511,3.511,0,0,1,1.687.531V34.33a3.779,3.779,0,0,0-1.679-.4c-1.153,0-1.929.635-1.929,1.662,0,.956.684,1.331,1.442,1.578.706.23,1.222.274,1.222.785,0,.407-.326.585-.766.585A3.511,3.511,0,0,1,33.251,38Z" transform="translate(27.777 19.796)" fill="#e52431"/><path d="M126.531,44.132H141.5V39.591h-9.769V33.97h8.1V29.659h-8.1v-4.64h9.409V20.48h-14.6ZM104.79,39.591V25.019H106.2c2.645,0,4.9.262,6.566,1.437a6.881,6.881,0,0,1,2.746,5.818c0,4.672-2.746,7.317-9.28,7.317Zm-5.2,4.541H106c10.13,0,14.7-4.608,14.7-11.858,0-7.579-5.065-11.794-14.473-11.794H99.595ZM80.237,32.568c.753-2,1.6-4.346,2.222-6.141h.064c.622,1.8,1.472,4.146,2.156,6.011l.983,2.647H79.288Zm-9.8,11.564h5.324l1.926-4.966h9.539l1.9,4.966h5.554L85.072,20.48H80.039Z" transform="translate(82.677 0.025)" fill="#e52431"/><path d="M60.366,26.563v-6.1h5.949l-5.949,6.1" transform="translate(67.878 0)" fill="#e52431" fill-rule="evenodd"/><path d="M65.423,20.463h5.27s10.885.417,10.883,11.71S70.291,44.128,70.291,44.128l-9.925.081,5.3-6.993,9.08-.081,2.106-.894,2.027-3.986-5.84-3.334-.728-2.2L68.1,24.935l-2.674-4.472" transform="translate(67.877 0)" fill="#e52431" fill-rule="evenodd"/></g></svg>